<svg
          width="40"
          height="40"
          viewBox="0 0 40 40"
          fill="none"
          xmlns="http://www.w3.org/2000/svg"
        >
          <path
            d="M20 3.33325C10.7943 3.33325 3.33333 10.7942 3.33333 19.9999C3.33333 29.2056 10.7943 36.6666 20 36.6666C29.2057 36.6666 36.6667 29.2056 36.6667 19.9999C36.6667 10.7942 29.2057 3.33325 20 3.33325ZM20 6.66659C27.3503 6.66659 33.3333 12.6497 33.3333 19.9999C33.3333 20.7812 33.2552 21.5494 33.125 22.2916C32.7148 22.2004 32.1094 22.0898 31.4062 22.0833C30.8854 22.0767 30.2344 22.1614 29.6875 22.2395C29.8763 21.6601 30 21.0221 30 20.3645C30 18.7629 29.2188 17.2721 27.9688 16.0416C28.3138 14.759 28.6523 12.5585 27.7604 11.6666C25.1237 11.6666 23.6654 13.5481 23.5938 13.6458C22.7799 13.4504 21.9401 13.3333 21.0417 13.3333C19.8893 13.3333 18.7891 13.5416 17.7604 13.8541L18.0729 13.5937C18.0729 13.5937 16.6081 11.5624 13.9062 11.5624C12.9622 12.5129 13.3919 14.9218 13.75 16.1458C12.474 17.3632 11.6667 18.802 11.6667 20.3645C11.6667 20.9114 11.7969 21.4322 11.9271 21.927C11.4648 21.8749 9.79818 21.7187 9.11458 21.7187C8.50912 21.7187 7.57162 21.8619 6.82292 22.0312C6.71875 21.3671 6.66667 20.69 6.66667 19.9999C6.66667 12.6497 12.6497 6.66659 20 6.66659ZM9.11458 22.1353C9.77214 22.1353 11.7708 22.3697 12.0312 22.3958C12.0638 22.4869 12.0964 22.5715 12.1354 22.6562C11.4193 22.5911 10.0326 22.4934 9.11458 22.6041C8.50261 22.6757 7.72136 22.8971 7.03125 23.0728C6.97917 22.8645 6.91406 22.6627 6.875 22.4478C7.60417 22.2916 8.5612 22.1353 9.11458 22.1353ZM31.4062 22.4999C32.0703 22.5064 32.6758 22.6171 33.0729 22.7083C33.0534 22.8189 32.9948 22.9101 32.9688 23.0208C32.5456 22.9231 31.849 22.7799 31.0417 22.7603C30.651 22.7538 30.026 22.7734 29.4792 22.8124C29.5052 22.7603 29.5117 22.7083 29.5312 22.6562C30.0977 22.578 30.8203 22.4934 31.4062 22.4999ZM10.1563 22.9687C11.0938 22.9752 11.9727 23.0403 12.3438 23.0728C13.2161 24.7004 14.9805 25.9049 17.7083 26.4062C17.0378 26.7773 16.4388 27.2981 15.9896 27.9166C15.599 27.9491 15.1888 27.9687 14.7917 27.9687C13.6328 27.9687 12.9102 26.9335 12.2917 26.0416C11.6667 25.1497 10.8984 25.052 10.4688 24.9999C10.0326 24.9478 9.88281 25.1952 10.1042 25.3645C11.3737 26.3411 11.8294 27.4999 12.3438 28.5416C12.806 29.4791 13.776 29.9999 14.8438 29.9999H15.0521C15.0195 30.1822 15 30.3515 15 30.5208V32.3437C11.1523 30.7877 8.22266 27.4999 7.13542 23.4374C7.81901 23.2681 8.58724 23.0924 9.16667 23.0208C9.43359 22.9882 9.77214 22.9622 10.1563 22.9687ZM31.0417 23.177C31.7904 23.1965 32.4544 23.3398 32.8646 23.4374C31.9466 26.8879 29.681 29.759 26.6667 31.5103V30.5208C26.6667 29.1015 25.5469 27.2786 23.9583 26.4062C26.5951 25.9244 28.3138 24.7721 29.2188 23.2291C29.8503 23.1835 30.5924 23.164 31.0417 23.177ZM20.8333 29.9999C21.2891 29.9999 21.6667 30.3775 21.6667 30.8333V33.2291C21.1198 33.3007 20.5664 33.3333 20 33.3333V30.8333C20 30.3775 20.3776 29.9999 20.8333 29.9999ZM17.5 31.6666C17.9557 31.6666 18.3333 32.0442 18.3333 32.4999V33.2291C17.7734 33.1575 17.207 33.0533 16.6667 32.9166V32.4999C16.6667 32.0442 17.0443 31.6666 17.5 31.6666ZM24.1667 31.6666C24.5703 31.6666 24.9219 31.9596 25 32.3437C24.4596 32.565 23.9062 32.7668 23.3333 32.9166V32.4999C23.3333 32.0442 23.7109 31.6666 24.1667 31.6666Z"
            fill="#102542"
          />
        </svg>