 <svg
          width="40"
          height="40"
          viewBox="0 0 40 40"
          fill="none"
          xmlns="http://www.w3.org/2000/svg"
        >
          <path
            d="M36.6667 6.66504C35.3667 7.43671 32.7583 8.48837 31.225 8.79171C31.18 8.80337 31.1433 8.81837 31.1 8.83004C29.745 7.49337 27.8883 6.66504 25.8333 6.66504C21.6917 6.66504 18.3333 10.0234 18.3333 14.165C18.3333 14.3834 18.315 14.785 18.3333 14.9984C12.745 14.9984 8.49166 12.0717 5.44166 8.33171C5.11 9.16504 4.965 10.4817 4.965 11.7184C4.965 14.0534 6.78999 16.3467 9.63166 17.7684C9.10833 17.9034 8.53166 18 7.93166 18C6.96333 18 5.93833 17.745 4.99999 16.9717C4.99999 17 4.99999 17.0267 4.99999 17.0567C4.99999 20.32 8.46333 22.5417 11.5433 23.16C10.9183 23.5284 9.65833 23.565 9.04333 23.565C8.60999 23.565 7.07666 23.3667 6.66666 23.29C7.52333 25.965 10.6133 27.4684 13.5583 27.5217C11.255 29.3284 9.65666 29.9984 4.93999 29.9984H3.33333C6.31333 31.9084 10.1083 33.3334 13.9117 33.3334C26.295 33.3334 33.3333 23.895 33.3333 14.9984C33.3333 14.855 33.33 14.555 33.325 14.2534C33.325 14.2234 33.3333 14.195 33.3333 14.165C33.3333 14.12 33.32 14.0767 33.32 14.0317C33.315 13.805 33.31 13.5934 33.305 13.4834C34.6217 12.5334 35.7633 11.3484 36.6667 9.99837C35.4583 10.535 34.1617 10.895 32.8 11.0584C34.19 10.225 36.165 8.23837 36.6667 6.66504Z"
            fill="#102542"
          />
        </svg>