<svg width="60" height="60" viewBox="0 0 128 128" fill="none" xmlns="http://www.w3.org/2000/svg">
<path d="M64 0C28.672 0 0 28.672 0 64C0 99.328 28.672 128 64 128C99.328 128 128 99.328 128 64C128 28.672 99.328 0 64 0ZM64 19.2C74.624 19.2 83.2 27.776 83.2 38.4C83.2 49.024 74.624 57.6 64 57.6C53.376 57.6 44.8 49.024 44.8 38.4C44.8 27.776 53.376 19.2 64 19.2ZM64 110.08C48 110.08 33.856 101.888 25.6 89.472C25.792 76.736 51.2 69.76 64 69.76C76.736 69.76 102.208 76.736 102.4 89.472C94.144 101.888 80 110.08 64 110.08Z" fill="#E8E9ED"/>
<path d="M25.1001 89.4645L25.0977 89.6196L25.1836 89.7489C33.5284 102.298 47.8256 110.58 64 110.58C80.1744 110.58 94.4716 102.298 102.816 89.7489L102.902 89.6196L102.9 89.4645C102.849 86.1004 101.127 83.1562 98.4516 80.6538C95.7782 78.1534 92.1193 76.0594 88.0968 74.3787C80.0538 71.018 70.4364 69.26 64 69.26C57.5317 69.26 47.9143 71.018 39.8791 74.3787C35.8604 76.0595 32.2074 78.1536 29.5391 80.6542C26.8687 83.1567 25.1508 86.1009 25.1001 89.4645ZM0.5 64C0.5 28.9481 28.9481 0.5 64 0.5C99.0519 0.5 127.5 28.9481 127.5 64C127.5 99.0519 99.0519 127.5 64 127.5C28.9481 127.5 0.5 99.0519 0.5 64ZM83.7 38.4C83.7 27.4999 74.9001 18.7 64 18.7C53.0999 18.7 44.3 27.4999 44.3 38.4C44.3 49.3001 53.0999 58.1 64 58.1C74.9001 58.1 83.7 49.3001 83.7 38.4Z" stroke="black" stroke-opacity="0.4"/>
</svg>
